<svg xmlns="http://www.w3.org/2000/svg" width="1200" height="630" viewBox="0 0 1200 630">
  <defs>
    <linearGradient id="bg" x1="0" y1="0" x2="1" y2="1">
      <stop offset="0%" stop-color="#0f172a"/>
      <stop offset="100%" stop-color="#1e293b"/>
    </linearGradient>
    <linearGradient id="card" x1="0" y1="0" x2="1" y2="1">
      <stop offset="0%" stop-color="#f8fafc"/>
      <stop offset="100%" stop-color="#e2e8f0"/>
    </linearGradient>
  </defs>
  <rect width="1200" height="630" fill="url(#bg)"/>
  <rect x="90" y="135" width="320" height="360" rx="28" fill="url(#card)"/>
  <rect x="440" y="135" width="320" height="360" rx="28" fill="url(#card)"/>
  <rect x="790" y="135" width="320" height="360" rx="28" fill="url(#card)"/>

  <!-- GitHub -->
  <g transform="translate(250 250)">
    <circle cx="0" cy="0" r="70" fill="#0f172a"/>
    <polygon points="-45,-40 -70,-90 -25,-65" fill="#0f172a"/>
    <polygon points="45,-40 70,-90 25,-65" fill="#0f172a"/>
    <circle cx="-25" cy="-5" r="6" fill="#f8fafc"/>
    <circle cx="25" cy="-5" r="6" fill="#f8fafc"/>
    <path d="M-28 25 C-10 40 10 40 28 25" stroke="#f8fafc" stroke-width="8" fill="none" stroke-linecap="round"/>
  </g>
  <text x="250" y="410" text-anchor="middle" font-size="30" font-family="Atkinson Hyperlegible, Arial, sans-serif" fill="#0f172a">GitHub</text>

  <!-- Lobster -->
  <g transform="translate(600 250)" fill="#ef4444" stroke="#b91c1c" stroke-width="6">
    <ellipse cx="0" cy="10" rx="50" ry="70" fill="#ef4444"/>
    <ellipse cx="0" cy="90" rx="35" ry="40" fill="#f97316" stroke="#c2410c"/>
    <path d="M-70 -10 C-110 -20 -120 20 -90 40 C-60 60 -40 40 -50 10" fill="#f97316" stroke="#c2410c"/>
    <path d="M70 -10 C110 -20 120 20 90 40 C60 60 40 40 50 10" fill="#f97316" stroke="#c2410c"/>
    <circle cx="-15" cy="-10" r="6" fill="#0f172a" stroke="none"/>
    <circle cx="15" cy="-10" r="6" fill="#0f172a" stroke="none"/>
    <path d="M-20 20 C-8 28 8 28 20 20" stroke="#0f172a" stroke-width="5" fill="none" stroke-linecap="round"/>
  </g>
  <text x="600" y="410" text-anchor="middle" font-size="30" font-family="Atkinson Hyperlegible, Arial, sans-serif" fill="#0f172a">Lobster</text>

  <!-- Cloud -->
  <g transform="translate(950 255)" fill="#38bdf8">
    <circle cx="-50" cy="20" r="40"/>
    <circle cx="0" cy="0" r="55"/>
    <circle cx="60" cy="20" r="35"/>
    <rect x="-80" y="20" width="160" height="60" rx="30"/>
  </g>
  <text x="950" y="410" text-anchor="middle" font-size="30" font-family="Atkinson Hyperlegible, Arial, sans-serif" fill="#0f172a">Cloud</text>
</svg>
