<svg xmlns="http://www.w3.org/2000/svg" viewBox="0 0 1200 600" role="img">
  <defs>
    <linearGradient id="bg2" x1="0" y1="0" x2="1" y2="1">
      <stop offset="0" stop-color="#171334"/><stop offset="1" stop-color="#241d4d"/>
    </linearGradient>
  </defs>
  <rect width="1200" height="600" fill="url(#bg2)"/>
  <g fill="none" stroke="#8d84f2" stroke-width="2.5" opacity="0.55">
    <path d="M300 300 C520 300 620 110 900 110"/>
    <path d="M300 300 C520 300 620 205 900 205"/>
    <path d="M300 300 C520 300 620 300 900 300"/>
    <path d="M300 300 C520 300 620 395 900 395"/>
    <path d="M300 300 C520 300 620 490 900 490"/>
  </g>
  <g fill="#8d84f2">
    <circle cx="900" cy="110" r="16"/><circle cx="900" cy="205" r="16"/>
    <circle cx="900" cy="300" r="16"/><circle cx="900" cy="395" r="16"/>
    <circle cx="900" cy="490" r="16"/>
  </g>
  <g fill="#c9c4fb" opacity="0.75">
    <circle cx="1010" cy="110" r="9"/><circle cx="1010" cy="300" r="9"/><circle cx="1010" cy="490" r="9"/>
    <circle cx="1090" cy="205" r="6"/><circle cx="1090" cy="395" r="6"/>
  </g>
  <circle cx="300" cy="300" r="74" fill="#5b50e0"/>
  <circle cx="300" cy="300" r="74" fill="none" stroke="#c9c4fb" stroke-width="3" opacity="0.6"/>
  <path d="M270 300 L330 300 M306 276 L330 300 L306 324" fill="none" stroke="#f0f2f6" stroke-width="9" stroke-linecap="round" stroke-linejoin="round"/>
</svg>
