<svg xmlns="http://www.w3.org/2000/svg" width="1200" height="630" viewBox="0 0 1200 630" role="img" aria-label="Person at a desk watching code and an SPX chart">
  <defs>
    <linearGradient id="bg" x1="0" y1="0" x2="1" y2="1">
      <stop offset="0" stop-color="#0b0f1a"/>
      <stop offset="1" stop-color="#182332"/>
    </linearGradient>
    <linearGradient id="screen" x1="0" y1="0" x2="0" y2="1">
      <stop offset="0" stop-color="#0c1a2b"/>
      <stop offset="1" stop-color="#0a0f18"/>
    </linearGradient>
  </defs>
  <rect width="1200" height="630" fill="url(#bg)"/>
  <rect x="140" y="110" width="620" height="360" rx="18" fill="url(#screen)" stroke="#1f2d42" stroke-width="3"/>
  <rect x="180" y="150" width="260" height="120" rx="10" fill="#0f243b" stroke="#263850" stroke-width="2"/>
  <rect x="180" y="290" width="260" height="130" rx="10" fill="#0f243b" stroke="#263850" stroke-width="2"/>
  <rect x="470" y="150" width="260" height="270" rx="10" fill="#0f243b" stroke="#263850" stroke-width="2"/>
  <path d="M500 380 L540 340 L580 360 L620 300 L660 320 L700 260" fill="none" stroke="#37d4a6" stroke-width="5"/>
  <circle cx="700" cy="260" r="6" fill="#37d4a6"/>
  <text x="500" y="190" fill="#8aa4c6" font-family="Verdana, sans-serif" font-size="20">SPX</text>
  <path d="M210 220 L320 220" stroke="#5aa7ff" stroke-width="6" stroke-linecap="round"/>
  <path d="M210 250 L360 250" stroke="#8aa4c6" stroke-width="6" stroke-linecap="round"/>
  <path d="M210 310 L340 310" stroke="#ffb454" stroke-width="6" stroke-linecap="round"/>
  <path d="M210 340 L360 340" stroke="#8aa4c6" stroke-width="6" stroke-linecap="round"/>
  <rect x="760" y="420" width="220" height="30" rx="8" fill="#132235"/>
  <rect x="760" y="460" width="260" height="30" rx="8" fill="#132235"/>
  <rect x="760" y="500" width="180" height="30" rx="8" fill="#132235"/>
  <path d="M820 520 C820 470 850 450 900 450 C950 450 980 470 980 520" fill="#0d131f" stroke="#243249" stroke-width="3"/>
  <circle cx="900" cy="440" r="30" fill="#0d131f" stroke="#243249" stroke-width="3"/>
  <path d="M860 580 L940 580" stroke="#243249" stroke-width="10" stroke-linecap="round"/>
  <rect x="140" y="500" width="620" height="20" rx="10" fill="#1b2a3d"/>
</svg>
